MoBL_ARMS_module2_4_allmuscles elbow_states	
version=1	
nRows=463	
nColumns=2	
inDegrees=yes	
	
# SIMM Motion File Header:	
name MoBL_ARMS_module2_4_allmuscles elbow_states	
datacolumns 2	
datarows 463	
otherdata 1	
range 0 1.040720598	
endheader	
time	elbow_flexion
0	15.00000002
0.001152156	15.00044286
0.003090382	15.00331125
0.005350665	15.01025192
0.007610948	15.02105023
0.010458728	15.04008427
0.014165625	15.07396397
0.019717832	15.14402069
0.026288274	15.25658832
0.030443853	15.34409305
0.034599433	15.44394842
0.036735609	15.50000015
0.039374129	15.57356533
0.041307162	15.63044733
0.043240194	15.68980968
0.045804672	15.77232481
0.04836915	15.85905304
0.050170261	15.92244004
0.051971373	15.98783636
0.054714484	16.0912257
0.057179581	16.1879506
0.05929326	16.27368623
0.061406938	16.36194384
0.063520616	16.45266718
0.065634295	16.54580518
0.068242661	16.66400238
0.070271348	16.75837678
0.072300034	16.85485512
0.074747054	16.97398349
0.077194073	17.09607195
0.079083416	17.19232547
0.080972759	17.29028505
0.083586965	17.42859894
0.085917787	17.55459224
0.088248609	17.68306794
0.09022311	17.79381942
0.092197611	17.90630599
0.094628623	18.04715606
0.097059635	18.19058897
0.099039288	18.30929568
0.101018941	18.42971201
0.103470608	18.58120863
0.105922275	18.73532187
0.107855496	18.85868388
0.109788717	18.98366522
0.112300388	19.14847449
0.11481206	19.3160631
0.116706528	19.44433261
0.118600996	19.57422184
0.121179764	19.75364723
0.123758532	19.93609324
0.125596146	20.06794101
0.12743376	20.20131403
0.130118576	20.39891702
0.13251703	20.57820493
0.134915483	20.76011643
0.136819279	20.90638957
0.138723075	21.05433194
0.141308194	21.2578902
0.143631146	21.4434149
0.145954097	21.63139104
0.147939154	21.79395416
0.149924211	21.95829121
0.152340563	22.16073689
0.154756916	22.3658425
0.156748796	22.53693327
0.158740676	22.70985318
0.16117502	22.92366774
0.163609363	23.1402014
0.16555679	23.31537194
0.167504217	23.49227041
0.16999402	23.72095482
0.172483822	23.95247183
0.174395715	24.13217719
0.176307608	24.31355202
0.178832863	24.55565724
0.181358118	24.80063309
0.183279881	24.98897367
0.185201644	25.17895722
0.187744433	25.43285387
0.190287222	25.68961171
0.192146994	25.87920184
0.194006766	26.07029864
0.19664484	26.34392489
0.199006224	26.59136664
0.201367607	26.84115732
0.203341513	27.05174661
0.205315419	27.26394722
0.207787979	27.53199874
0.21026054	27.80250324
0.212176985	28.01382231
0.21409343	28.22655932
0.216668735	28.51462195
0.218974477	28.7746143
0.221280219	29.03652415
0.223298704	29.26733859
0.225317189	29.49954752
0.227335673	29.73311285
0.23006561	30.05108977
0.232103914	30.29001737
0.234142218	30.53018901
0.236607618	30.82228748
0.23882249	31.08614305
0.241037363	31.35130654
0.243252235	31.6177256
0.245467107	31.88534733
0.247681979	32.15411792
0.249896851	32.42398295
0.252111723	32.69488798
0.254326595	32.96677869
0.256310714	33.21113544
0.258294833	33.45620044
0.26071967	33.7566036
0.263144506	34.05793184
0.265122316	34.30434235
0.267100126	34.55127778
0.269580692	34.86166268
0.272061259	35.17272641
0.273963106	35.41162689
0.275864952	35.65084126
0.278461525	35.97787925
0.280780161	36.27027486
0.283098797	36.56295003
0.285095001	36.81510407
0.287091205	37.06738411
0.289494317	37.3712034
0.291897429	37.67508494
0.293898378	37.9281105
0.295899326	38.18109354
0.29832028	38.4870668
0.300741233	38.79285709
0.302700724	39.04018519
0.304660215	39.2873262
0.307132188	39.59879929
0.309604162	39.90989024
0.311530104	40.15196968
0.313456045	40.39376468
0.315982362	40.7104628
0.31850868	41.02657722
0.320388385	41.26137545
0.32226809	41.49580838
0.32487183	41.81990996
0.327206923	42.10991722
0.329542016	42.39927167
0.331565348	42.64943714
0.33358868	42.89905664
0.335612012	43.1481006
0.33833651	43.48245863
0.340430687	43.7385823
0.342524864	43.99385935
0.344619041	44.24825715
0.347182143	44.55837003
0.349257001	44.80836389
0.351331858	45.0573916
0.353406716	45.30542836
0.356006073	45.61473119
0.35808789	45.8612705
0.360169707	46.10673314
0.362251524	46.35109505
0.364835377	46.65282025
0.366915839	46.89443643
0.3689963	47.13485021
0.371076762	47.37405906
0.373662085	47.66962217
0.375743604	47.90620861
0.377825123	48.14154886
0.379906643	48.37562883
0.38248887	48.66424449
0.384570587	48.89547316
0.386652304	49.12539688
0.388734021	49.35400128
0.391315045	49.63558305
0.393397125	49.8612171
0.395479204	50.08548256
0.397561283	50.30836509
0.400140931	50.58257304
0.402223246	50.80233587
0.404305562	51.02067381
0.406387877	51.23757517
0.408966506	51.50416679
0.411049048	51.71783653
0.413131589	51.93003634
0.415214131	52.14075785
0.417791795	52.39951972
0.419874547	52.60692906
0.421957299	52.81284215
0.424040052	53.01726322
0.426616975	53.26816004
0.428699822	53.46937347
0.430782668	53.66924063
0.432865515	53.86782202
0.435441953	54.11176658
0.437524929	54.30767667
0.439607905	54.50246733
0.441690881	54.69619756
0.444266815	54.93441565
0.446349719	55.12603814
0.448432623	55.31686332
0.450515526	55.50698585
0.453075529	55.73983382
0.455178286	55.93051902
0.457281044	56.12076617
0.459383802	56.31063912
0.46148656	56.50020247
0.464172302	56.74198784
0.466121912	56.91736369
0.468071521	57.09271442
0.470629166	57.32285584
0.473186811	57.55327901
0.474974797	57.71461265
0.476762783	57.87620166
0.479527901	58.12667988
0.482018708	58.35298523
0.484113301	58.54383037
0.486207895	58.73519359
0.488302489	58.92709299
0.490835942	59.15993429
0.492888031	59.34913566
0.49494012	59.5388832
0.496992209	59.72918585
0.499673151	59.97865842
0.501692275	60.16719533
0.5037114	60.35629828
0.506184882	60.58873379
0.508658365	60.8220342
0.51049649	60.99597443
0.512334615	61.17040767
0.514984153	61.42273407
0.517385435	61.65236119
0.519786716	61.88291881
0.521694531	62.06677538
0.523602345	62.25124087
0.526181454	62.50159181
0.528500915	62.72771342
0.530820375	62.9547822
0.532811305	63.1504717
0.534802235	63.34691079
0.5372111	63.58561717
0.539619966	63.82547779
0.54161769	64.02529309
0.543615415	64.22593719
0.54604138	64.47074349
0.548467344	64.71687115
0.55042203	64.91619062
0.552376716	65.11643985
0.554855652	65.37177293
0.557334589	65.62868873
0.559255107	65.82885064
0.561175625	66.03002474
0.563703217	66.29639815
0.56623081	66.56468468
0.568122395	66.76676616
0.570013979	66.96999388
0.572598516	67.24955541
0.575183053	67.53131656
0.577017325	67.73263063
0.578851597	67.93506962
0.581543889	68.23425672
0.583942291	68.5028568
0.586340693	68.77341529
0.588247639	68.98992611
0.590154585	69.2076593
0.592733808	69.50406871
0.595313031	69.80263225
0.597196654	70.02199859
0.599080278	70.2424504
0.601681116	70.54857112
0.604281953	70.85662419
0.606170927	71.08152601
0.608059901	71.3073718
0.610650087	71.61852891
0.613240273	71.93130518
0.615132612	72.16077203
0.617024952	72.39099556
0.619612932	72.70698985
0.622200912	73.02418893
0.624091627	73.25661902
0.625982342	73.48958082
0.628572674	73.80952262
0.631163005	74.13025337
0.633053442	74.36475205
0.634943879	74.59955768
0.637534124	74.92169484
0.640124368	75.24419465
0.64201516	75.47976826
0.643905952	75.71542497
0.646495803	76.03826167
0.649085655	76.36105804
0.650976397	76.59662875
0.652867139	76.83207527
0.655457125	77.15431512
0.658047111	77.47612959
0.659937791	77.71072242
0.66182847	77.94499207
0.66441851	78.26532646
0.66700855	78.58489721
0.66889925	78.81765026
0.670789951	79.04992045
0.673378418	79.36707074
0.675966886	79.68318131
0.677859616	79.91362858
0.679752346	80.14346023
0.68233618	80.45618818
0.684920014	80.76770322
0.686815722	80.9954613
0.68871143	81.22252798
0.691296608	81.53103456
0.693881785	81.8381858
0.695771393	82.06181763
0.697661002	82.28469535
0.700253255	82.58920335
0.702845507	82.89224813
0.704735459	83.11225682
0.706625411	83.33147015
0.709215924	83.63063947
0.711806437	83.92829604
0.713697493	84.14462485
0.715588548	84.36014383
0.718178022	84.65394609
0.720767496	84.94623147
0.722658285	85.15869659
0.724549074	85.37035598
0.727131233	85.65810795
0.729713392	85.94434554
0.731614318	86.15408415
0.733515243	86.36297666
0.736094733	86.64507094
0.738674224	86.92558257
0.740562974	87.12996428
0.742451725	87.33347569
0.74504669	87.61162542
0.747641655	87.88802559
0.749530211	88.08804214
0.751418767	88.28707271
0.75401053	88.55858233
0.756602293	88.82819088
0.758493747	89.02374118
0.7603852	89.21824965
0.762968143	89.48212558
0.765551086	89.74390327
0.767449711	89.93493533
0.769348336	90.12476022
0.771930295	90.38094984
0.774512254	90.63487678
0.776401582	90.81923902
0.778290911	91.00236237
0.780884122	91.25165711
0.783477334	91.49852945
0.785366623	91.67684581
0.787255911	91.85385932
0.789847339	92.09454231
0.792438766	92.33277915
0.794329718	92.50507191
0.79622067	92.67605034
0.798810013	92.90802726
0.801399357	93.13750356
0.803290425	93.30351261
0.805181493	93.46818913
0.807761247	93.69070556
0.810341	93.91079075
0.812244626	94.07165597
0.814148251	94.23122903
0.816725216	94.44519376
0.819302182	94.65680262
0.821190638	94.81039589
0.823079093	94.96276565
0.82567433	95.17022843
0.828269566	95.3755485
0.830158174	95.52366562
0.832046782	95.67070716
0.83463848	95.87075912
0.837230178	96.06885137
0.839121518	96.2122188
0.841012859	96.35462734
0.84358546	96.54688331
0.846158062	96.73756593
0.848070398	96.87833041
0.849982734	97.01827794
0.852547711	97.20471676
0.855112688	97.38971297
0.857004503	97.52524786
0.858896318	97.660022
0.861489894	97.84356924
0.86408347	98.02571359
0.865970018	98.15731961
0.867856565	98.28817364
0.870451103	98.46689425
0.873045641	98.64416466
0.874936855	98.77246001
0.876828069	98.89997422
0.87941661	99.07323242
0.882005151	99.245012
0.883896556	99.3695895
0.88578796	99.49337145
0.888377381	99.66154095
0.890966802	99.82821127
0.892857274	99.94894419
0.894747745	100.0688748
0.897338135	100.2319028
0.899928525	100.3934184
0.901819151	100.5103448
0.903709776	100.6264614
0.906299805	100.7842155
0.908889833	100.9404414
0.910780598	101.0535194
0.912671363	101.1657742
0.915261289	101.3181939
0.917851215	101.4690489
0.919741918	101.5781818
0.921632621	101.6864698
0.924222649	101.8334272
0.926812677	101.9787623
0.928703363	102.0838121
0.930594049	102.1879661
0.933183923	102.3291561
0.935773798	102.4685994
0.937664701	102.5692837
0.939555605	102.669001
0.942145382	102.8039738
0.944735159	102.9370543
0.946625852	103.0329865
0.948516545	103.1278605
0.951106604	103.2560686
0.953696664	103.3821874
0.955587327	103.4728965
0.957477989	103.5624386
0.960068047	103.6831707
0.962658104	103.8016169
0.964548804	103.8866038
0.966439503	103.9703179
0.96902951	104.0828837
0.971619517	104.1929516
0.973510224	104.2716889
0.975400932	104.3490396
0.97799084	104.4527052
0.980580749	104.5536749
0.982471574	104.6256593
0.984362399	104.6961646
0.986952272	104.790312
0.989542145	104.8816353
0.991432835	104.9465111
0.993323525	105.009868
0.99591357	105.094187
0.998503616	105.1756379
1.000394291	105.2332807
1.002284966	105.289392
1.004875016	105.3637771
1.007465065	105.4353047
1.009355762	105.485725
1.011246459	105.5346408
1.013836463	105.5992232
1.016426468	105.6610215
1.01831718	105.7043883
1.020207892	105.7462892
1.022797832	105.8013169
1.025387772	105.8536167
1.027278548	105.8900802
1.029169325	105.9250976
1.031759252	105.9707225
1.034349179	106.0136493
1.036239874	106.0432876
1.038130569	106.0714945
1.040720598	106.1078065
